<svg width="59" height="55" viewBox="0 0 59 55" fill="none" xmlns="http://www.w3.org/2000/svg">
<g clip-path="url(#clip0_63_41)">
<path d="M23.8831 4.79327C23.8831 2.32736 25.9549 0.328369 28.5105 0.328369C31.0662 0.328369 33.1379 2.32736 33.1379 4.79327C33.1379 6.57445 32.0569 8.11221 30.4937 8.82844V13.0854H49.6654C50.7606 13.0854 51.6486 13.9422 51.6486 14.999C51.6486 16.0561 50.7606 16.9126 49.6654 16.9126H30.4937V51.3572H41.7322C42.8274 51.3572 43.7155 52.2141 43.7155 53.2708C43.7155 54.3276 42.8274 55.1844 41.7322 55.1844H15.2883C14.1931 55.1844 13.3051 54.3276 13.3051 53.2708C13.3051 52.2141 14.1931 51.3572 15.2883 51.3572H26.5268V16.9126H7.35515C6.25994 16.9126 5.37192 16.0561 5.37192 14.999C5.37192 13.9422 6.25994 13.0854 7.35515 13.0854H26.5268V8.82844C24.9637 8.11212 23.8831 6.57445 23.8831 4.79327Z" fill="#1F3044"/>
<path d="M14.4576 19.3257C14.1394 18.6342 13.4288 18.1887 12.6449 18.1887C11.8609 18.1887 11.1503 18.6342 10.8321 19.3257L4.46973 33.155L5.47286 33.6389L6.58224 33.9956C10.5178 35.2612 14.772 35.2612 18.7072 33.9956L19.8166 33.6389L20.8197 33.155L14.4576 19.3257Z" fill="#1F3044"/>
<path d="M2.32931 37.8066L2.85877 36.6562L3.95087 37.1833L5.32803 37.6263C10.0776 39.1533 15.2124 39.1533 19.9609 37.6263L21.3381 37.1833L22.4302 36.6562L22.968 37.8253C24.4993 41.1532 23.1668 45.5899 18.9976 46.6928C14.7757 47.8093 10.5711 47.8102 6.31736 46.6894C2.14191 45.5887 0.7927 41.1467 2.32931 37.8066Z" fill="#1F3044"/>
<path d="M46.1894 19.3257C45.8711 18.6342 45.1606 18.1887 44.3766 18.1887C43.5926 18.1887 42.8821 18.6342 42.5638 19.3257L36.2015 33.155L37.2046 33.6389L38.3145 33.9956C42.2495 35.2612 46.5042 35.2612 50.4394 33.9956L51.5488 33.6389L52.5519 33.155L46.1894 19.3257Z" fill="#1F3044"/>
<path d="M34.0611 37.8064L34.5905 36.6558L35.6827 37.1829L37.0598 37.6258C41.8089 39.1528 46.9441 39.1528 51.6927 37.6258L53.0699 37.1829L54.162 36.6558L54.6998 37.8248C56.2311 41.1527 54.8986 45.5894 50.7294 46.6923C46.5075 47.8088 42.3029 47.8101 38.0491 46.6889C33.8737 45.5882 32.5245 41.1461 34.0611 37.8064Z" fill="#1F3044"/>
</g>
<defs>
<clipPath id="clip0_63_41">
<rect width="59" height="55" fill="white"/>
</clipPath>
</defs>
</svg>
