<svg width="79" height="59" viewBox="0 0 79 59" fill="none" xmlns="http://www.w3.org/2000/svg">
<g clip-path="url(#clip0_63_115)">
<g clip-path="url(#clip1_63_115)">
<g clip-path="url(#clip2_63_115)">
<path fill-rule="evenodd" clip-rule="evenodd" d="M34.6459 31.0464C35.1122 31.5104 35.4148 32.1123 35.5084 32.7621C34.6742 32.9867 33.9143 33.4257 33.3038 34.0345L30.2447 37.0775H30.2452C29.6335 37.6857 29.1934 38.443 28.9678 39.2737C28.3143 39.1801 27.7096 38.8783 27.2423 38.4143C26.6691 37.8395 26.3472 37.062 26.3472 36.2515C26.3472 35.4416 26.6691 34.6641 27.2423 34.0888L30.3015 31.0458V31.0464C30.879 30.4753 31.6596 30.1544 32.474 30.1544C33.2878 30.1544 34.0684 30.4753 34.6459 31.0464ZM37.8574 43.4938C38.6477 43.514 39.4108 43.2059 39.9637 42.6434C40.5166 42.0814 40.8102 41.3156 40.7727 40.5295C40.6374 40.7057 40.4904 40.8728 40.3332 41.0298L37.8585 43.4943L37.8574 43.4938ZM15.5708 27.2899H15.7686C15.8424 26.0883 16.3552 24.9547 17.2113 24.1038L20.2693 21.0608C21.142 20.1913 22.3087 19.6756 23.5418 19.6155C24.7753 19.5559 25.987 19.9556 26.9404 20.7368C27.8938 21.518 28.5205 22.6249 28.6975 23.8415L28.7178 23.9756C29.8017 24.1022 30.8134 24.5817 31.5956 25.3396C32.3779 26.0968 32.8869 27.0905 33.0436 28.1654L33.0623 28.2995C34.1467 28.4256 35.1589 28.9045 35.9412 29.6629C36.7235 30.4207 37.232 31.4148 37.3881 32.4903L37.4084 32.6245C38.5153 32.7522 39.5462 33.2487 40.3333 34.0342C41.0263 34.7271 41.4979 35.6084 41.6893 36.5668C41.8802 37.5258 41.7829 38.5199 41.4086 39.4236C42.2197 39.5848 43.0614 39.3868 43.7143 38.8807C44.3667 38.3747 44.7656 37.611 44.8067 36.7888L34.8931 26.9208C34.538 26.5488 34.546 25.9634 34.9107 25.601C35.2749 25.2386 35.8636 25.2317 36.2363 25.585L46.1521 35.4541C46.8553 35.4184 47.5205 35.1246 48.0183 34.6292C48.5161 34.1337 48.8113 33.4717 48.8471 32.7719L37.0379 21.0163C36.6748 20.6464 36.678 20.0541 37.0459 19.6885C37.4132 19.3229 38.0078 19.3192 38.3795 19.6805L49.5047 30.7528C50.2923 30.7134 51.0281 30.3505 51.5367 29.7502C52.0446 29.1504 52.2799 28.3671 52.1853 27.588L52.1789 27.539C52.1639 27.4235 52.142 27.3097 52.1126 27.1974L52.1029 27.158L52.0922 27.1234L52.0842 27.1021C52.0794 27.0845 52.0746 27.067 52.0682 27.0489V27.0441C51.9463 26.6641 51.7436 26.3145 51.4741 26.0191C51.4597 26.0016 51.4442 25.9851 51.4276 25.9686C51.4116 25.9516 51.3944 25.9351 51.3784 25.917L41.0498 15.6376H39.9366L36.2844 19.2739L36.2839 19.2744C35.4524 20.1237 34.313 20.6059 33.1211 20.6139C31.9292 20.6213 30.7839 20.1535 29.9412 19.3154C29.0985 18.4767 28.6279 17.3368 28.6349 16.1506C28.6424 14.9644 29.1268 13.8309 29.9797 13.0023L34.1895 8.81202L31.9469 6.57952H15.5711V27.2996L15.5708 27.2899ZM5.92185 4.79199H12.9073C13.3298 4.79306 13.6715 5.13364 13.672 5.55407V27.8667C13.6715 28.2866 13.3292 28.6272 12.9073 28.6277H5.92185C5.49943 28.6272 5.15721 28.2866 5.15613 27.8667V5.55407C5.15666 5.13366 5.49941 4.79307 5.92185 4.79199ZM57 5.01284H63.9855C64.4079 5.01391 64.7501 5.3545 64.7512 5.77492V28.0876C64.7491 28.5075 64.4074 28.847 63.9855 28.848H57.0006C56.5792 28.847 56.237 28.5075 56.2359 28.0876V5.77492C56.2365 5.35451 56.5781 5.01392 57.0006 5.01284H57ZM54.3371 27.2901H54.0602C53.9249 26.2614 53.4517 25.3062 52.7143 24.5734L41.8334 13.7438H39.1501L34.9381 17.9336C34.4574 18.4093 33.8066 18.6759 33.1291 18.6759C32.4511 18.6759 31.8004 18.4093 31.3196 17.9336C30.8426 17.4546 30.5747 16.807 30.5753 16.1327C30.5763 15.4579 30.8448 14.8113 31.3228 14.3334L35.5332 10.1436L39.1184 6.57492H54.3376V27.295L54.3371 27.2901ZM38.9893 35.3738C38.4124 34.8027 37.6317 34.4824 36.8179 34.4824C36.0041 34.4824 35.2234 34.8027 34.6459 35.3738L31.59 38.414C31.0163 38.9887 30.6938 39.7657 30.6938 40.5756C30.6938 41.3861 31.0163 42.163 31.59 42.7378C32.1675 43.3088 32.9482 43.6292 33.7626 43.6292C34.5764 43.6292 35.357 43.3088 35.9345 42.7378L38.9893 39.6949C39.5636 39.1201 39.8855 38.3426 39.8855 37.5321C39.8855 36.7216 39.5636 35.9442 38.9893 35.3694V35.3738ZM25.9572 22.3979C25.3797 21.8263 24.5991 21.5059 23.7847 21.5059C22.9709 21.5059 22.1897 21.8263 21.6127 22.3979L18.5535 25.4397C17.9798 26.0145 17.6579 26.792 17.6579 27.6025C17.6579 28.4124 17.9798 29.1899 18.5535 29.7652C19.0209 30.2287 19.6262 30.5305 20.2796 30.6241C20.5052 29.7929 20.9469 29.0356 21.5602 28.4279L24.6177 25.386C25.2278 24.7767 25.9882 24.3376 26.8228 24.1131C26.7287 23.4633 26.4256 22.8614 25.9593 22.3978L25.9572 22.3979ZM30.3034 26.7217L30.3029 26.7212C29.7254 26.1502 28.9442 25.8293 28.1298 25.8293C27.316 25.8293 26.5348 26.1502 25.9572 26.7212L22.8997 29.7647V29.7652C22.326 30.3394 22.0035 31.1169 22.0035 31.9269C22.0035 32.7368 22.326 33.5143 22.8997 34.0885C23.366 34.5542 23.9724 34.8559 24.6263 34.948C24.8519 34.1178 25.2925 33.3605 25.9043 32.7533L28.9618 29.7098V29.7093C29.5713 29.1021 30.3301 28.6636 31.1621 28.4385C31.068 27.7887 30.7654 27.1863 30.2996 26.7212L30.3034 26.7217Z" fill="#1F3044"/>
</g>
</g>
</g>
<defs>
<clipPath id="clip0_63_115">
<rect width="79" height="59" fill="white"/>
</clipPath>
<clipPath id="clip1_63_115">
<rect width="56.0656" height="57" fill="white" transform="translate(4.96716 -13)"/>
</clipPath>
<clipPath id="clip2_63_115">
<rect width="62.6066" height="39.2459" fill="white" transform="translate(4.96716 4.75415)"/>
</clipPath>
</defs>
</svg>
