<svg width="48" height="55" viewBox="0 0 48 55" fill="none" xmlns="http://www.w3.org/2000/svg">
<g clip-path="url(#clip0_63_226)">
<path d="M44.3845 16.0266V13.5174C44.3845 9.74147 41.3554 6.66895 37.6312 6.66895H37.1189C33.3949 6.66895 30.364 9.74147 30.364 13.5174V16.0266H28.2415V28.2172C28.2415 29.7438 29.4591 30.9895 30.9647 30.9895H43.7841C45.2897 30.9895 46.5073 29.7438 46.5073 28.2172V16.0266H44.3845ZM38.437 24.0975C38.4479 24.1647 38.4814 24.232 38.4814 24.3104V27.4647C38.4814 28.082 37.9834 28.5869 37.3746 28.5869C36.7658 28.5869 36.2678 28.082 36.2678 27.4647V24.3104C36.2678 24.232 36.3012 24.1647 36.3122 24.0975C35.2937 23.6709 34.585 22.661 34.585 21.4821C34.585 19.9216 35.8361 18.6537 37.3745 18.6537C38.9135 18.6537 40.164 19.9222 40.164 21.4821C40.164 22.661 39.4555 23.6709 38.437 24.0975ZM41.9274 16.0266H32.8212V13.5174C32.8212 11.115 34.749 9.16034 37.119 9.16034H37.6312C40.0006 9.16034 41.9274 11.1146 41.9274 13.5174L41.9274 16.0266Z" fill="#1F3044"/>
<path d="M21.5751 55.2723C24.5971 55.2723 27.2266 53.6028 28.6393 51.1365H14.5115C15.9369 53.6028 18.5658 55.2723 21.5757 55.2723H21.5751Z" fill="#1F3044"/>
<path d="M27.9399 38.7168C28.0507 36.7981 28.456 34.9173 29.1438 33.1484C27.1902 32.401 25.7899 30.4702 25.7899 28.2157V13.5421H27.9032V13.5171C27.9032 9.70558 30.1761 6.40441 33.4196 4.97136C30.8764 2.1185 27.3629 0.175354 23.4682 -0.272812C22.2276 -0.422409 20.9129 -0.422409 19.6964 -0.272812C12.5707 0.54912 6.71036 6.37949 5.76415 13.5795C5.1005 18.5372 6.68558 23.4327 10.0889 27.033C13.1603 30.2468 14.9664 34.3576 15.2121 38.7175L27.9399 38.7168Z" fill="#1F3044"/>
<path d="M13.4048 41.2083V43.8365H29.7455V41.2083H13.4048Z" fill="#1F3044"/>
<path d="M13.4048 46.9883C13.4048 47.5611 13.4662 48.1094 13.577 48.645H29.5737C29.6845 48.1095 29.7459 47.5611 29.7459 46.9883V46.3282L13.4052 46.3276L13.4048 46.9883Z" fill="#1F3044"/>
</g>
<defs>
<clipPath id="clip0_63_226">
<rect width="43" height="55" fill="white" transform="translate(5)"/>
</clipPath>
</defs>
</svg>
