<svg width="63" height="61" viewBox="0 0 63 61" fill="none" xmlns="http://www.w3.org/2000/svg">
<g clip-path="url(#clip0_63_78)">
<path d="M46.6361 0.290283H42.4771C41.3287 0.290283 40.3976 1.22142 40.3976 2.36979C40.3976 3.26425 40.9685 4.01106 41.7609 4.30445L36.2385 9.82679L33.5496 7.13781C32.7373 6.3255 31.4213 6.3255 30.609 7.13781L22.291 15.4558C21.4787 16.2681 21.4787 17.5841 22.291 18.3964C22.6976 18.803 23.2295 19.0058 23.7615 19.0058C24.2934 19.0058 24.8259 18.8025 25.232 18.3964L32.0795 11.5489L34.7685 14.2378C35.5808 15.0501 36.8967 15.0501 37.7091 14.2378L44.7014 7.24547C44.9948 8.03735 45.7417 8.60832 46.6361 8.60832C47.7845 8.60832 48.7156 7.67718 48.7156 6.52881V2.36979C48.7156 1.22142 47.7845 0.290283 46.6361 0.290283Z" fill="#1F3044"/>
<path d="M27.9205 33.5625C27.9205 29.3015 25.3513 25.6488 21.682 24.0428V28.3638C21.682 28.9384 21.2169 29.4035 20.6422 29.4035C20.0676 29.4035 19.6025 28.9384 19.6025 28.3638V23.3744C18.9303 23.2384 18.2354 23.165 17.5229 23.165C16.8104 23.165 16.1155 23.2384 15.4434 23.3744V28.3638C15.4434 28.9384 14.9783 29.4035 14.4037 29.4035C13.829 29.4035 13.3639 28.9384 13.3639 28.3638V24.0428C9.69461 25.6489 7.12541 29.3015 7.12541 33.5625C5.97703 33.5625 5.0459 34.4937 5.0459 35.6421C5.0459 36.7904 5.97703 37.7216 7.12541 37.7216H27.9205C29.0689 37.7216 30 36.7904 30 35.6421C30 34.4937 29.0689 33.5625 27.9205 33.5625Z" fill="#1F3044"/>
<path d="M11.2844 50.1985H23.7615V58.5165H11.2844V50.1985Z" fill="#1F3044"/>
<path d="M0.886902 58.5165H9.20494V50.1985C4.611 50.1985 0.886902 53.9226 0.886902 58.5165Z" fill="#1F3044"/>
<path d="M25.841 50.1985V58.5165H34.159C34.159 53.9226 30.4349 50.1985 25.841 50.1985Z" fill="#1F3044"/>
<path d="M9.2049 39.801V41.8805C9.2049 46.4745 12.929 50.1986 17.5229 50.1986C22.1169 50.1986 25.841 46.4745 25.841 41.8805V39.801H9.2049Z" fill="#1F3044"/>
<path d="M57.0336 29.4034H50.7951V7.56856C50.7951 6.99438 51.2607 6.52881 51.8349 6.52881H55.9939C56.5681 6.52881 57.0336 6.99438 57.0336 7.56856V29.4034Z" fill="#1F3044"/>
<path d="M48.7156 29.4034H42.4771V13.8071C42.4771 13.2329 42.9426 12.7673 43.5168 12.7673H47.6758C48.25 12.7673 48.7156 13.2329 48.7156 13.8071V29.4034Z" fill="#1F3044"/>
<path d="M40.3976 29.4034H34.1591V20.0456C34.1591 19.4714 34.6246 19.0059 35.1988 19.0059H39.3578C39.932 19.0059 40.3976 19.4714 40.3976 20.0456V29.4034Z" fill="#1F3044"/>
<path d="M45.5963 31.4829C38.131 31.4829 32.0795 37.5349 32.0795 44.9997C32.0795 52.4646 38.1315 58.5165 45.5963 58.5165C53.0612 58.5165 59.1131 52.4646 59.1131 44.9997C59.1131 37.5349 53.0616 31.4829 45.5963 31.4829ZM45.5963 43.96C48.464 43.96 50.7951 46.2925 50.7951 49.1587C50.7951 51.669 49.0066 53.7694 46.6361 54.2521V55.3972C46.6361 55.9719 46.171 56.437 45.5963 56.437C45.0217 56.437 44.5566 55.9719 44.5566 55.3972V54.2521C42.1861 53.7694 40.3976 51.669 40.3976 49.1587C40.3976 48.5841 40.8627 48.119 41.4373 48.119C42.012 48.119 42.4771 48.5841 42.4771 49.1587C42.4771 50.879 43.876 52.278 45.5963 52.278C47.3166 52.278 48.7156 50.879 48.7156 49.1587C48.7156 47.4384 47.3166 46.0395 45.5963 46.0395C42.7286 46.0395 40.3976 43.707 40.3976 40.8407C40.3976 38.3304 42.1861 36.23 44.5566 35.7473V34.6022C44.5566 34.0276 45.0217 33.5625 45.5963 33.5625C46.171 33.5625 46.6361 34.0276 46.6361 34.6022V35.7473C49.0066 36.2305 50.7951 38.3304 50.7951 40.8407C50.7951 41.4153 50.33 41.8805 49.7553 41.8805C49.1807 41.8805 48.7156 41.4153 48.7156 40.8407C48.7156 39.1204 47.3166 37.7214 45.5963 37.7214C43.876 37.7214 42.4771 39.1204 42.4771 40.8407C42.4771 42.561 43.876 43.96 45.5963 43.96Z" fill="#1F3044"/>
</g>
<defs>
<clipPath id="clip0_63_78">
<rect width="58.0328" height="59" fill="white" transform="translate(0.983582)"/>
</clipPath>
</defs>
</svg>
