<svg width="157" height="48" viewBox="0 0 157 48" fill="none" xmlns="http://www.w3.org/2000/svg">
<path d="M9.14814 33.7778L1.75925 47.5C13.4876 40.463 37.5074 24.2074 39.7593 15.4815C42.0111 6.75556 33.1913 2.9321 28.5 2.11111L29.5555 0L23.2222 0.351852L26.037 4.92593L27.0926 3.16667C30.963 3.87037 38.2111 6.8963 36.2407 13.3704C34.2704 19.8444 17.358 29.6728 9.14814 33.7778Z" fill="white"/>
<path d="M9.14816 30.963L12.6667 28.5V25.3333H15.4815V27.4444L18.2963 26.037V21.8148H9.14816V30.963Z" fill="white"/>
<path d="M21.1111 15.4815H7.03705L8.44446 19.7037H19L21.1111 15.4815Z" fill="white"/>
<rect y="9.85185" width="28.1481" height="3.51852" fill="white"/>
<path d="M52.0207 32.75V18H46.2207V15.25H61.0707V18H55.2707V32.75H52.0207ZM68.1176 32.925C66.6342 32.925 65.3342 32.6333 64.2176 32.05C63.1176 31.45 62.2592 30.6333 61.6426 29.6C61.0426 28.5667 60.7426 27.3917 60.7426 26.075C60.7426 24.7417 61.0342 23.5667 61.6176 22.55C62.2176 21.5167 63.0342 20.7083 64.0676 20.125C65.1176 19.5417 66.3092 19.25 67.6426 19.25C68.9426 19.25 70.1009 19.5333 71.1176 20.1C72.1342 20.6667 72.9342 21.4667 73.5176 22.5C74.1009 23.5333 74.3926 24.75 74.3926 26.15C74.3926 26.2833 74.3842 26.4333 74.3676 26.6C74.3676 26.7667 74.3592 26.925 74.3426 27.075H63.2176V25H72.6926L71.4676 25.65C71.4842 24.8833 71.3259 24.2083 70.9926 23.625C70.6592 23.0417 70.2009 22.5833 69.6176 22.25C69.0509 21.9167 68.3926 21.75 67.6426 21.75C66.8759 21.75 66.2009 21.9167 65.6176 22.25C65.0509 22.5833 64.6009 23.05 64.2676 23.65C63.9509 24.2333 63.7926 24.925 63.7926 25.725V26.225C63.7926 27.025 63.9759 27.7333 64.3426 28.35C64.7092 28.9667 65.2259 29.4417 65.8926 29.775C66.5592 30.1083 67.3259 30.275 68.1926 30.275C68.9426 30.275 69.6176 30.1583 70.2176 29.925C70.8176 29.6917 71.3509 29.325 71.8176 28.825L73.4926 30.75C72.8926 31.45 72.1342 31.9917 71.2176 32.375C70.3176 32.7417 69.2842 32.925 68.1176 32.925ZM77.3943 32.75V19.4H80.3693V23.075L80.0193 22C80.4193 21.1 81.0443 20.4167 81.8943 19.95C82.761 19.4833 83.836 19.25 85.1193 19.25V22.225C84.986 22.1917 84.861 22.175 84.7443 22.175C84.6277 22.1583 84.511 22.15 84.3943 22.15C83.211 22.15 82.2693 22.5 81.5693 23.2C80.8693 23.8833 80.5193 24.9083 80.5193 26.275V32.75H77.3943ZM93.9232 32.925C92.4399 32.925 91.1399 32.6333 90.0232 32.05C88.9232 31.45 88.0649 30.6333 87.4482 29.6C86.8482 28.5667 86.5482 27.3917 86.5482 26.075C86.5482 24.7417 86.8399 23.5667 87.4232 22.55C88.0232 21.5167 88.8399 20.7083 89.8732 20.125C90.9232 19.5417 92.1149 19.25 93.4482 19.25C94.7482 19.25 95.9066 19.5333 96.9232 20.1C97.9399 20.6667 98.7399 21.4667 99.3232 22.5C99.9066 23.5333 100.198 24.75 100.198 26.15C100.198 26.2833 100.19 26.4333 100.173 26.6C100.173 26.7667 100.165 26.925 100.148 27.075H89.0232V25H98.4982L97.2732 25.65C97.2899 24.8833 97.1316 24.2083 96.7982 23.625C96.4649 23.0417 96.0066 22.5833 95.4232 22.25C94.8566 21.9167 94.1982 21.75 93.4482 21.75C92.6816 21.75 92.0066 21.9167 91.4232 22.25C90.8566 22.5833 90.4066 23.05 90.0732 23.65C89.7566 24.2333 89.5982 24.925 89.5982 25.725V26.225C89.5982 27.025 89.7816 27.7333 90.1482 28.35C90.5149 28.9667 91.0316 29.4417 91.6982 29.775C92.3649 30.1083 93.1316 30.275 93.9982 30.275C94.7482 30.275 95.4232 30.1583 96.0232 29.925C96.6232 29.6917 97.1566 29.325 97.6232 28.825L99.2982 30.75C98.6982 31.45 97.9399 31.9917 97.0232 32.375C96.1232 32.7417 95.0899 32.925 93.9232 32.925ZM107.325 32.925C106.208 32.925 105.133 32.7833 104.1 32.5C103.083 32.2 102.275 31.8417 101.675 31.425L102.875 29.05C103.475 29.4333 104.192 29.75 105.025 30C105.858 30.25 106.692 30.375 107.525 30.375C108.508 30.375 109.217 30.2417 109.65 29.975C110.1 29.7083 110.325 29.35 110.325 28.9C110.325 28.5333 110.175 28.2583 109.875 28.075C109.575 27.875 109.183 27.725 108.7 27.625C108.217 27.525 107.675 27.4333 107.075 27.35C106.492 27.2667 105.9 27.1583 105.3 27.025C104.717 26.875 104.183 26.6667 103.7 26.4C103.217 26.1167 102.825 25.7417 102.525 25.275C102.225 24.8083 102.075 24.1917 102.075 23.425C102.075 22.575 102.317 21.8417 102.8 21.225C103.283 20.5917 103.958 20.1083 104.825 19.775C105.708 19.425 106.75 19.25 107.95 19.25C108.85 19.25 109.758 19.35 110.675 19.55C111.592 19.75 112.35 20.0333 112.95 20.4L111.75 22.775C111.117 22.3917 110.475 22.1333 109.825 22C109.192 21.85 108.558 21.775 107.925 21.775C106.975 21.775 106.267 21.9167 105.8 22.2C105.35 22.4833 105.125 22.8417 105.125 23.275C105.125 23.675 105.275 23.975 105.575 24.175C105.875 24.375 106.267 24.5333 106.75 24.65C107.233 24.7667 107.767 24.8667 108.35 24.95C108.95 25.0167 109.542 25.125 110.125 25.275C110.708 25.425 111.242 25.6333 111.725 25.9C112.225 26.15 112.625 26.5083 112.925 26.975C113.225 27.4417 113.375 28.05 113.375 28.8C113.375 29.6333 113.125 30.3583 112.625 30.975C112.142 31.5917 111.45 32.075 110.55 32.425C109.65 32.7583 108.575 32.925 107.325 32.925ZM124.291 32.75V30.05L124.116 29.475V24.75C124.116 23.8333 123.841 23.125 123.291 22.625C122.741 22.1083 121.908 21.85 120.791 21.85C120.041 21.85 119.3 21.9667 118.566 22.2C117.85 22.4333 117.241 22.7583 116.741 23.175L115.516 20.9C116.233 20.35 117.083 19.9417 118.066 19.675C119.066 19.3917 120.1 19.25 121.166 19.25C123.1 19.25 124.591 19.7167 125.641 20.65C126.708 21.5667 127.241 22.9917 127.241 24.925V32.75H124.291ZM120.091 32.925C119.091 32.925 118.216 32.7583 117.466 32.425C116.716 32.075 116.133 31.6 115.716 31C115.316 30.3833 115.116 29.6917 115.116 28.925C115.116 28.175 115.291 27.5 115.641 26.9C116.008 26.3 116.6 25.825 117.416 25.475C118.233 25.125 119.316 24.95 120.666 24.95H124.541V27.025H120.891C119.825 27.025 119.108 27.2 118.741 27.55C118.375 27.8833 118.191 28.3 118.191 28.8C118.191 29.3667 118.416 29.8167 118.866 30.15C119.316 30.4833 119.941 30.65 120.741 30.65C121.508 30.65 122.191 30.475 122.791 30.125C123.408 29.775 123.85 29.2583 124.116 28.575L124.641 30.45C124.341 31.2333 123.8 31.8417 123.016 32.275C122.25 32.7083 121.275 32.925 120.091 32.925ZM141.186 33C140.069 33 139.036 32.7833 138.086 32.35C137.153 31.9167 136.386 31.2917 135.786 30.475L137.636 28.25C138.119 28.9167 138.644 29.4167 139.211 29.75C139.794 30.0833 140.428 30.25 141.111 30.25C142.928 30.25 143.836 29.175 143.836 27.025V17.975H137.611V15.25H147.086V26.85C147.086 28.9167 146.578 30.4583 145.561 31.475C144.561 32.4917 143.103 33 141.186 33ZM152.149 32.925C151.583 32.925 151.099 32.7333 150.699 32.35C150.299 31.95 150.099 31.45 150.099 30.85C150.099 30.2167 150.299 29.7167 150.699 29.35C151.099 28.9667 151.583 28.775 152.149 28.775C152.716 28.775 153.199 28.9667 153.599 29.35C153.999 29.7167 154.199 30.2167 154.199 30.85C154.199 31.45 153.999 31.95 153.599 32.35C153.199 32.7333 152.716 32.925 152.149 32.925Z" fill="white"/>
</svg>
