<svg width="51" height="50" viewBox="0 0 51 50" fill="none" xmlns="http://www.w3.org/2000/svg">
<g clip-path="url(#clip0_63_423)">
<path d="M14.9711 11.1538H7.95186C5.0443 11.1538 2.68744 13.5107 2.68744 16.4182V18.173H20.2355V16.4182C20.2355 13.5107 17.8787 11.1538 14.9711 11.1538Z" fill="#1F3044"/>
<path d="M16.7259 5.88942C16.7259 8.79699 14.3691 11.1538 11.4615 11.1538C8.55394 11.1538 6.19708 8.79699 6.19708 5.88942C6.19708 2.98186 8.55394 0.625 11.4615 0.625C14.3691 0.625 16.7259 2.98186 16.7259 5.88942Z" fill="#1F3044"/>
<path d="M10.8498 30.4578H20.2353V30.457C20.2353 27.8542 22.1378 25.7014 24.6224 25.2807V24.3148C24.6224 23.8299 25.0148 23.4374 25.4998 23.4374C25.9847 23.4374 26.3772 23.8299 26.3772 24.3148V25.2807C28.8617 25.7014 30.7642 27.8542 30.7642 30.4566C30.7642 30.4566 30.7638 30.4574 30.7638 30.4578H40.1497L50.0671 23.8463C50.0671 21.6821 48.3127 19.9277 46.1485 19.9277H4.8514C2.68727 19.9277 0.932861 21.6821 0.932861 23.8463L10.8498 30.4578Z" fill="#1F3044"/>
<path d="M40.9022 32.0652C40.7581 32.1612 40.5888 32.2125 40.4153 32.2125H29.8865C29.4016 32.2125 29.0091 31.82 29.0091 31.3351C29.0091 31.3347 29.0095 31.3343 29.0095 31.3343V30.7303C29.0095 28.9359 27.7936 27.2391 26.0173 26.9837C23.8527 26.6731 21.9902 28.3508 21.9902 30.4566C21.9902 32.354 23.503 33.9039 25.3858 33.9642C27.9229 34.0452 30.2233 35.755 30.6757 38.2525C31.2233 41.2776 29.1673 43.9337 26.3772 44.4061V45.3724C26.3772 45.8573 25.9848 46.2498 25.4998 46.2498C25.0149 46.2498 24.6224 45.8573 24.6224 45.3724V44.4065C22.1379 43.9858 20.2354 41.833 20.2354 39.2306C20.2354 38.7457 20.6279 38.3532 21.1128 38.3532C21.5531 38.3532 21.9174 38.6767 21.9804 39.0994C22.2017 40.5772 22.8433 42.0332 24.2547 42.5247C26.8129 43.4155 29.1983 41.4158 28.9978 38.9395C28.8532 37.1565 27.2696 35.7276 25.4803 35.7209C23.2046 35.7127 21.284 34.2446 20.559 32.2129L10.5844 32.2125C10.4113 32.2125 10.2417 32.1612 10.0975 32.0652L0.932617 25.9551V45.8406C0.932617 48.0047 2.68702 49.7591 4.85115 49.7591H46.1483C48.3124 49.7591 50.0668 48.0047 50.0668 45.8406V25.9551L40.9022 32.0652Z" fill="#1F3044"/>
<path d="M29.0096 11.1538H25.5C24.5309 11.1538 23.7452 11.9396 23.7452 12.9086V18.173H30.7644V12.9086C30.7644 11.9396 29.9787 11.1538 29.0096 11.1538Z" fill="#1F3044"/>
<path d="M37.7836 5.8894H34.274C33.305 5.8894 32.5192 6.67515 32.5192 7.64421V18.1731H39.5385V7.64421C39.5385 6.67515 38.7527 5.8894 37.7836 5.8894Z" fill="#1F3044"/>
<path d="M46.5577 0.625H43.0481C42.079 0.625 41.2933 1.41074 41.2933 2.37981V18.1731H48.3125V2.37981C48.3125 1.41074 47.5268 0.625 46.5577 0.625Z" fill="#1F3044"/>
</g>
<defs>
<clipPath id="clip0_63_423">
<rect width="49.0385" height="50" fill="white" transform="translate(0.980774)"/>
</clipPath>
</defs>
</svg>
