<svg width="99" height="46" viewBox="0 0 99 46" fill="none" xmlns="http://www.w3.org/2000/svg">
<path d="M27.04 1.01531C35.5733 1.01531 40.0267 0.988646 40.4 0.935312C40.7733 0.881979 41.08 0.855313 41.32 0.855313C41.5867 0.855313 41.72 0.908646 41.72 1.01531C41.72 1.12198 41.5733 1.29531 41.28 1.53531C41.0133 1.74865 40.5333 1.97531 39.84 2.21531C39.1733 2.42865 38.4133 2.53531 37.56 2.53531L25.76 2.49531C22.32 2.54865 19.0267 3.01531 15.88 3.89531C12.76 4.77531 10.2 5.82865 8.2 7.05531C6.2 8.28198 4.61333 9.53531 3.44 10.8153C2.26667 12.0953 1.68 13.1886 1.68 14.0953C1.68 15.1886 2.49333 15.7353 4.12 15.7353C5.74667 15.7353 7.85333 15.042 10.44 13.6553C13.0533 12.242 15.2667 10.562 17.08 8.61531C17.3733 8.32198 17.5733 8.17531 17.68 8.17531C17.7333 8.17531 17.76 8.21531 17.76 8.29531C17.76 8.37531 17.7467 8.44198 17.72 8.49531C16.9467 10.3086 15.12 12.2286 12.24 14.2553C9.36 16.2553 6.6 17.2553 3.96 17.2553C1.32 17.2553 0 16.4953 0 14.9753C0 13.8286 0.746667 12.4686 2.24 10.8953C3.73333 9.32198 5.66667 7.80198 8.04 6.33531C10.4133 4.84198 13.3067 3.58865 16.72 2.57531C20.16 1.53531 23.6 1.01531 27.04 1.01531ZM25.24 3.93531C25.24 4.01531 24.3067 5.78865 22.44 9.25531C17.3467 18.722 13.8533 25.2553 11.96 28.8553C11.8 29.202 11.5067 29.4686 11.08 29.6553C10.6533 29.842 10.32 29.9353 10.08 29.9353C9.86667 29.9353 9.76 29.8686 9.76 29.7353C9.76 29.6286 10.8933 27.4953 13.16 23.3353C15.4267 19.1753 17.68 15.042 19.92 10.9353C22.1867 6.80198 23.2933 4.72198 23.24 4.69531C23.4 4.42865 23.6667 4.22865 24.04 4.09531L25.04 3.77531L25.24 3.93531Z" fill="#213145"/>
<path d="M21.0659 24.6553C19.4659 24.6553 18.6659 24.3086 18.6659 23.6153C18.6659 22.7886 19.6126 21.8153 21.5059 20.6953C23.3993 19.5486 25.1059 18.9753 26.6259 18.9753C27.3993 18.9753 27.7859 19.2153 27.7859 19.6953C27.7859 19.962 27.5859 20.2553 27.1859 20.5753C26.7859 20.8953 26.3993 21.1486 26.0259 21.3353C25.6526 21.522 25.4393 21.6153 25.3859 21.6153C25.2259 21.6153 25.1193 21.5486 25.0659 21.4153C25.0126 21.2286 25.1459 21.042 25.4659 20.8553C25.8126 20.642 25.9859 20.4153 25.9859 20.1753C25.9859 19.9353 25.6793 19.8153 25.0659 19.8153C24.4793 19.8153 23.5459 20.242 22.2659 21.0953C20.9859 21.922 20.3459 22.602 20.3459 23.1353C20.3459 23.5353 20.8126 23.7353 21.7459 23.7353C21.9059 23.7353 22.1993 23.722 22.6259 23.6953C23.0526 23.6686 23.2659 23.722 23.2659 23.8553C23.2659 23.9886 22.5993 24.4686 21.2659 25.2953C19.9593 26.122 19.3059 26.8286 19.3059 27.4153C19.3059 28.082 19.7326 28.4153 20.5859 28.4153C21.4659 28.4153 22.4526 28.1886 23.5459 27.7353C25.3059 26.962 26.9059 26.1353 28.3459 25.2553L29.1059 24.7753C29.1326 24.8286 29.1459 24.9353 29.1459 25.0953C29.1459 25.2553 29.0259 25.3886 28.7859 25.4953C27.3726 26.4553 25.8259 27.3753 24.1459 28.2553C22.4659 29.1086 20.9459 29.5353 19.5859 29.5353C18.2526 29.5353 17.5859 29.0953 17.5859 28.2153C17.5859 27.3086 18.7459 26.122 21.0659 24.6553Z" fill="#213145"/>
<path d="M28.2075 25.8553C28.1008 25.9086 28.0075 25.9353 27.9275 25.9353C27.8208 25.9353 27.7675 25.882 27.7675 25.7753C27.7675 25.6686 27.8075 25.5753 27.8875 25.4953C28.9808 24.882 30.1808 23.882 31.4875 22.4953C30.2875 22.122 29.6875 21.602 29.6875 20.9353C29.6875 20.242 30.1408 19.482 31.0475 18.6553C31.9542 17.802 32.8075 17.3753 33.6075 17.3753C34.1408 17.3753 34.4075 17.6953 34.4075 18.3353C34.4075 19.322 33.9142 20.3753 32.9275 21.4953C34.2075 21.7086 34.8475 22.0153 34.8475 22.4153C34.8475 22.9486 34.6075 23.362 34.1275 23.6553C33.6742 23.922 33.1408 24.4153 32.5275 25.1353C31.9142 25.8553 31.6075 26.5753 31.6075 27.2953C31.6075 27.4553 31.6608 27.602 31.7675 27.7353C31.8742 27.8686 32.1008 27.9353 32.4475 27.9353C32.7942 27.9353 33.5275 27.682 34.6475 27.1753C35.7675 26.642 36.7542 26.1086 37.6075 25.5753L38.8875 24.7753C38.9142 24.8286 38.9275 24.9353 38.9275 25.0953C38.9275 25.2553 38.8075 25.3886 38.5675 25.4953C34.9675 27.9486 32.4608 29.1753 31.0475 29.1753C30.3542 29.1753 30.0075 28.8286 30.0075 28.1353C30.0075 27.5753 30.1942 26.9886 30.5675 26.3753C30.9675 25.762 31.3942 25.2553 31.8475 24.8553C32.3275 24.4553 32.7542 24.082 33.1275 23.7353C33.5275 23.362 33.7275 23.122 33.7275 23.0153C33.7275 22.9086 33.5542 22.842 33.2075 22.8153C32.8875 22.7886 32.4608 22.722 31.9275 22.6153C30.4608 24.1886 29.2208 25.2686 28.2075 25.8553ZM30.6875 20.2953C30.6875 20.8286 31.2742 21.202 32.4475 21.4153C33.1408 20.562 33.4875 19.8286 33.4875 19.2153C33.4875 18.5753 33.2875 18.2553 32.8875 18.2553C32.4875 18.2553 32.0208 18.4953 31.4875 18.9753C30.9542 19.4286 30.6875 19.8686 30.6875 20.2953Z" fill="#213145"/>
<path d="M39.9722 24.6553C38.3722 24.6553 37.5722 24.3086 37.5722 23.6153C37.5722 22.7886 38.5189 21.8153 40.4122 20.6953C42.3055 19.5486 44.0122 18.9753 45.5322 18.9753C46.3055 18.9753 46.6922 19.2153 46.6922 19.6953C46.6922 19.962 46.4922 20.2553 46.0922 20.5753C45.6922 20.8953 45.3055 21.1486 44.9322 21.3353C44.5589 21.522 44.3455 21.6153 44.2922 21.6153C44.1322 21.6153 44.0255 21.5486 43.9722 21.4153C43.9189 21.2286 44.0522 21.042 44.3722 20.8553C44.7189 20.642 44.8922 20.4153 44.8922 20.1753C44.8922 19.9353 44.5855 19.8153 43.9722 19.8153C43.3855 19.8153 42.4522 20.242 41.1722 21.0953C39.8922 21.922 39.2522 22.602 39.2522 23.1353C39.2522 23.5353 39.7189 23.7353 40.6522 23.7353C40.8122 23.7353 41.1055 23.722 41.5322 23.6953C41.9589 23.6686 42.1722 23.722 42.1722 23.8553C42.1722 23.9886 41.5055 24.4686 40.1722 25.2953C38.8655 26.122 38.2122 26.8286 38.2122 27.4153C38.2122 28.082 38.6389 28.4153 39.4922 28.4153C40.3722 28.4153 41.3589 28.1886 42.4522 27.7353C44.2122 26.962 45.8122 26.1353 47.2522 25.2553L48.0122 24.7753C48.0389 24.8286 48.0522 24.9353 48.0522 25.0953C48.0522 25.2553 47.9322 25.3886 47.6922 25.4953C46.2789 26.4553 44.7322 27.3753 43.0522 28.2553C41.3722 29.1086 39.8522 29.5353 38.4922 29.5353C37.1589 29.5353 36.4922 29.0953 36.4922 28.2153C36.4922 27.3086 37.6522 26.122 39.9722 24.6553Z" fill="#213145"/>
<path d="M49.2738 24.1753C47.9938 25.3486 47.1804 25.9353 46.8338 25.9353C46.7271 25.9353 46.6738 25.882 46.6738 25.7753C46.6738 25.6686 46.7138 25.5753 46.7938 25.4953C47.4338 25.1486 48.1804 24.5886 49.0338 23.8153C48.9004 23.4953 48.8338 23.1486 48.8338 22.7753C48.8338 21.8686 49.3004 21.002 50.2337 20.1753C51.1671 19.3486 51.9537 18.9353 52.5938 18.9353C52.9404 18.9353 53.1138 19.1086 53.1138 19.4553C53.1138 19.7753 52.5804 20.5753 51.5138 21.8553C51.4071 21.9886 51.2871 22.122 51.1538 22.2553C51.0204 22.3886 50.8737 22.5486 50.7137 22.7353C50.5804 22.8953 50.4737 23.0153 50.3937 23.0953C50.5271 23.2286 50.7671 23.4686 51.1138 23.8153C51.4604 24.1353 51.7404 24.402 51.9538 24.6153C52.5404 25.202 52.8338 25.9353 52.8338 26.8153C52.8338 27.6953 52.2871 28.4553 51.1938 29.0953C50.1004 29.762 48.9537 30.0953 47.7537 30.0953C46.5804 30.0953 45.9938 29.7353 45.9938 29.0153C45.9938 28.322 46.5404 27.682 47.6338 27.0953C48.7271 26.5086 49.8737 26.1086 51.0737 25.8953C50.9137 25.682 50.6071 25.402 50.1538 25.0553C49.7271 24.7086 49.4338 24.4153 49.2738 24.1753ZM51.3538 26.3753C50.4471 26.482 49.5938 26.7353 48.7938 27.1353C47.9938 27.5086 47.5938 27.962 47.5938 28.4953C47.5938 29.002 47.9538 29.2553 48.6738 29.2553C49.4204 29.2553 50.0738 29.082 50.6338 28.7353C51.2204 28.3886 51.5138 28.002 51.5138 27.5753C51.5138 27.1486 51.4604 26.7486 51.3538 26.3753ZM50.1138 22.7753L51.1538 21.6553C51.8471 20.8286 52.1938 20.3353 52.1938 20.1753C52.1938 19.9886 52.1138 19.8953 51.9538 19.8953C51.5004 19.8953 51.0337 20.122 50.5537 20.5753C50.0737 21.002 49.8338 21.4286 49.8338 21.8553C49.8338 22.2553 49.9271 22.562 50.1138 22.7753Z" fill="#213145"/>
<path d="M62.2844 23.7753C62.1244 23.7753 62.0444 23.682 62.0444 23.4953L62.1644 23.2153C62.6444 22.762 62.8844 22.3753 62.8844 22.0553C62.8844 21.6553 62.671 21.4553 62.2444 21.4553C61.311 21.4553 60.0444 22.1086 58.4444 23.4153C56.871 24.6953 56.0844 25.842 56.0844 26.8553C56.0844 27.282 56.3644 27.4953 56.9244 27.4953C57.4844 27.4953 58.1244 27.2686 58.8444 26.8153C59.591 26.3353 60.2177 25.8686 60.7244 25.4153C61.2577 24.9353 61.551 24.6953 61.6044 24.6953C61.871 24.722 62.0044 24.8553 62.0044 25.0953C62.0044 25.202 61.791 25.5486 61.3644 26.1353C60.9644 26.722 60.7644 27.1886 60.7644 27.5353C60.7644 27.802 60.9777 27.9353 61.4044 27.9353C61.8577 27.9353 62.6444 27.682 63.7644 27.1753C64.8844 26.642 65.871 26.1086 66.7244 25.5753L68.0044 24.7753C68.031 24.8286 68.0444 24.9353 68.0444 25.0953C68.0444 25.2553 67.9244 25.3886 67.6844 25.4953C64.0844 27.9486 61.5777 29.1753 60.1644 29.1753C59.471 29.1753 59.1244 28.8286 59.1244 28.1353C59.1244 27.842 59.1777 27.5353 59.2844 27.2153C59.0977 27.4286 58.5377 27.762 57.6044 28.2153C56.6977 28.642 55.8844 28.8553 55.1644 28.8553C54.4444 28.8553 54.0844 28.522 54.0844 27.8553C54.0844 26.282 55.1777 24.682 57.3644 23.0553C59.551 21.402 61.391 20.5753 62.8844 20.5753C63.7644 20.5753 64.2044 20.9486 64.2044 21.6953C64.2044 22.122 63.9377 22.5753 63.4044 23.0553C62.871 23.5353 62.4977 23.7753 62.2844 23.7753Z" fill="#213145"/>
<path d="M91.3859 25.4953C89.9726 25.4953 88.5193 25.7086 87.0259 26.1353C83.5593 31.5486 80.2793 36.1086 77.1859 39.8153C74.1193 43.5486 71.8926 45.4153 70.5059 45.4153C69.5726 45.4153 69.1059 44.8953 69.1059 43.8553C69.1059 42.842 69.5593 41.482 70.4659 39.7753C71.3726 38.0686 72.5593 36.3086 74.0259 34.4953C75.5193 32.7086 77.3326 30.9753 79.4659 29.2953C81.6259 27.642 83.8126 26.402 86.0259 25.5753C88.7726 20.882 91.1326 16.4553 93.1059 12.2953C95.0793 8.13531 96.0659 5.45531 96.0659 4.25531C96.0659 2.68198 95.4526 1.89531 94.2259 1.89531C93.0259 1.89531 91.3859 2.62865 89.3059 4.09531C87.2259 5.56198 85.2126 7.30865 83.2659 9.33531C81.3193 11.362 79.6259 13.5353 78.1859 15.8553C76.7726 18.1753 76.0659 20.042 76.0659 21.4553C76.0659 22.8686 76.7459 23.5753 78.1059 23.5753C79.5459 23.5753 81.1593 22.722 82.9459 21.0153C84.7593 19.3086 85.8126 17.8553 86.1059 16.6553C86.1593 16.4686 86.2793 16.3753 86.4659 16.3753C86.6793 16.3753 86.7859 16.4686 86.7859 16.6553C86.7859 18.0686 85.5459 19.7886 83.0659 21.8153C80.5859 23.8153 78.4793 24.8153 76.7459 24.8153C75.3593 24.8153 74.6659 23.9753 74.6659 22.2953C74.6659 20.5886 75.4526 18.4553 77.0259 15.8953C78.6259 13.3353 80.5059 10.9486 82.6659 8.73531C84.8526 6.52198 87.1326 4.62865 89.5059 3.05531C91.9059 1.48198 93.8526 0.695312 95.3459 0.695312C97.1326 0.695312 98.0259 1.85531 98.0259 4.17531C98.0259 5.56198 97.0393 8.22865 95.0659 12.1753C93.0926 16.122 90.6526 20.402 87.7459 25.0153C89.2659 24.6153 90.4526 24.4153 91.3059 24.4153C92.1859 24.4153 92.8526 24.5486 93.3059 24.8153C93.7859 25.0553 94.0259 25.3753 94.0259 25.7753C94.0259 26.6286 93.7459 27.4153 93.1859 28.1353C92.6526 28.8553 92.0259 29.2153 91.3059 29.2153C91.1993 29.2153 91.1459 29.1753 91.1459 29.0953C91.1459 28.8286 91.3326 28.602 91.7059 28.4153C92.2126 27.962 92.4659 27.362 92.4659 26.6153C92.4659 25.8686 92.1059 25.4953 91.3859 25.4953ZM70.7459 42.6953C70.7459 43.3086 70.9859 43.6153 71.4659 43.6153C72.7459 43.6153 74.6259 42.0286 77.1059 38.8553C79.6126 35.682 82.3459 31.6553 85.3059 26.7753C82.7193 27.8153 80.2526 29.442 77.9059 31.6553C75.5593 33.8953 73.7859 36.0286 72.5859 38.0553C71.3593 40.082 70.7459 41.6286 70.7459 42.6953Z" fill="#213145"/>
<path d="M98.6416 27.9353C98.6416 28.2286 98.5082 28.5086 98.2416 28.7753C98.0016 29.042 97.7216 29.1753 97.4016 29.1753C97.1082 29.1753 96.8816 29.1086 96.7216 28.9753C96.5882 28.842 96.5082 28.6153 96.4816 28.2953C96.4816 27.9753 96.6282 27.7086 96.9216 27.4953C97.2149 27.282 97.4949 27.1753 97.7616 27.1753C98.3482 27.1753 98.6416 27.4286 98.6416 27.9353Z" fill="#213145"/>
</svg>
