<svg width="66" height="51" viewBox="0 0 66 51" fill="none" xmlns="http://www.w3.org/2000/svg">
<g clip-path="url(#clip0_63_152)">
<path d="M48.7289 21.8736H38.6499V1.44664C38.6499 0.653178 38.004 0 37.2195 0H5.83044C5.04586 0 4.39999 0.653225 4.39999 1.44664V35.8534C4.39999 39.8628 7.62877 43.12 11.5769 43.12H43.0481C43.0645 43.12 43.0725 43.1119 43.0809 43.1119C46.9965 43.0539 50.1596 39.8218 50.1596 35.8538L50.16 23.3204C50.16 22.5184 49.5221 21.8738 48.7295 21.8738L48.7289 21.8736ZM22.8732 17.79H20.1676C17.6336 17.79 15.5656 15.7067 15.5656 13.1358C15.5656 10.6064 17.5927 8.5312 20.0859 8.48982V7.54726C20.0859 6.74531 20.7318 6.10063 21.5163 6.10063C22.3093 6.10063 22.9468 6.74536 22.9468 7.54726V8.48982C25.4479 8.52304 27.4671 10.5978 27.4671 13.1358C27.4671 13.9378 26.8296 14.5825 26.0366 14.5825C25.2521 14.5825 24.6062 13.9377 24.6062 13.1358C24.6062 12.1686 23.8297 11.3751 22.8651 11.3751L20.1676 11.3747C19.2112 11.3747 18.4266 12.16 18.4266 13.1355C18.4266 14.1027 19.2031 14.8962 20.1676 14.8962H22.8732C25.4152 14.8962 27.4752 16.9796 27.4752 19.5504C27.4752 22.0798 25.4561 24.155 22.9549 24.2045V25.1471C22.9549 25.9405 22.3174 26.5937 21.5245 26.5937C20.7399 26.5937 20.094 25.9405 20.094 25.1471V24.2045C17.6009 24.1632 15.5737 22.0884 15.5737 19.5504C15.5737 18.7484 16.2196 18.1037 17.0042 18.1037C17.7972 18.1037 18.4346 18.7485 18.4346 19.5504C18.4346 20.5176 19.2112 21.3112 20.1757 21.3112H22.8812C23.8376 21.3112 24.6223 20.5258 24.6223 19.5504C24.6146 18.5835 23.8297 17.79 22.8732 17.79ZM28.2766 28.909C29.0695 28.909 29.707 29.5537 29.707 30.3556C29.707 31.1491 29.0695 31.8023 28.2766 31.8023H14.7643C13.9798 31.8023 13.3339 31.1491 13.3339 30.3556C13.3339 29.5537 13.9798 28.909 14.7643 28.909H28.2766ZM14.7643 34.1171H28.2766C29.0695 34.1171 29.707 34.7703 29.707 35.5637C29.707 36.3657 29.0695 37.0103 28.2766 37.0103H14.7643C13.9798 37.0103 13.3339 36.3656 13.3339 35.5637C13.3339 34.7618 13.9795 34.1171 14.7643 34.1171ZM47.3062 35.8531C47.3062 38.2671 45.3608 40.2263 42.9738 40.2263C40.5953 40.2182 38.6579 38.259 38.6579 35.8531V24.7671H47.3062V35.8531Z" fill="#1F3044"/>
</g>
<defs>
<clipPath id="clip0_63_152">
<rect width="66" height="50.16" fill="white"/>
</clipPath>
</defs>
</svg>
